<?xml version="1.0" encoding="utf-8"?>
<!-- Generator: Adobe Illustrator 16.0.0, SVG Export Plug-In . SVG Version: 6.00 Build 0)  -->
<!DOCTYPE svg PUBLIC "-//W3C//DTD SVG 1.1//EN" "http://www.w3.org/Graphics/SVG/1.1/DTD/svg11.dtd">
<svg version="1.1" id="making_by_NICF-Nettie" xmlns="http://www.w3.org/2000/svg" xmlns:xlink="http://www.w3.org/1999/xlink"
	 x="0px" y="0px" width="1000px" height="273.261px" viewBox="0 0 1000 273.261" enable-background="new 0 0 1000 273.261"
	 xml:space="preserve">
<g id="A_NETFLIX_ORIGINAL_SERIES">
</g>
<g id="NETFLIX">
	<path fill="#E52214" d="M137.502,255.644c-15.043,2.668-30.349,3.468-46.184,5.606L43.02,118.218v149.165
		c-15.043,1.601-28.765,3.73-43.02,5.878V0h40.116L95.01,155.047V0h42.492V255.644L137.502,255.644z M220.637,100.074
		c16.371,0,41.436-0.805,56.482-0.805v42.689c-18.742,0-40.648,0-56.482,0.805v63.505c24.814-1.584,49.619-3.731,74.692-4.54v41.105
		l-116.92,9.344V0h116.92v42.698h-74.692V100.074z M452.361,42.698h-43.816v196.404c-14.241,0-28.496,0-42.223,0.528V42.698H322.51
		V0h129.851V42.698z M520.979,97.135h57.793v42.689h-57.793v96.867h-41.437V0h117.972v42.698h-76.535V97.135L520.979,97.135z
		 M666.14,199.339c24.012,0.535,48.298,2.41,71.783,3.734v42.162c-37.748-2.402-75.472-4.797-114.012-5.605V0h42.229V199.339z
		 M773.552,248.174c13.463,0.81,27.718,1.602,41.436,3.203V0h-41.436V248.174z M1000,0l-53.587,129.957L1000,273.261
		c-15.838-2.147-31.678-5.068-47.498-7.753l-30.366-78.981l-30.868,72.585c-15.311-2.675-30.093-3.468-45.387-5.613l54.362-125.148
		L851.152,0h45.387l27.718,71.784L953.804,0H1000z"/>
</g>
</svg>
